# xmcd
#
# Track frame offsets: 
#        150
#        12717
#        26800
#        38418
#        52514
#        64645
#        79251
#        92612
#        106136
#        121562
#        132490
#        145504
#        157766
#        166742
#        177231
#        187485
#        196952
#        210248
#        220269
#        232555
#        241868
#        252822
#        264976
#        275107
#        288276
#        297314
#        308089
#        317200
#        325497
#        334737
#        346908
#
# Disc length: 4790 seconds
#
# Revision: 1
# Processed by: cddbd v1.5.2PL0 Copyright (c) Steve Scherf et al.
# Submitted via: ExactAudioCopyFreeDBPlugin 1.0
#
DISCID=ad12b41f
DTITLE=Various Artist - Wailin' Daddy: The Best Of Maxwell Davis 1945
DTITLE=1959 [CD1]
DYEAR=2011
DGENRE=R&B
TTITLE0=Maxwell Davis and His Orchestra - M T Boogie
TTITLE1=Maxwell Davis' Swingtet - Lonesome Road Blues
TTITLE2=Maxwell Davis' Swingtet - Honey Dripper
TTITLE3=Maxwell Davis and The All Stars - Hung Out
TTITLE4=Maxwell Davis and The All Stars - Th' Adams Bop Hop
TTITLE5=Marshall Royal and Maxwell Davis - September in the Rain
TTITLE6=Maxwell Davis and Marshall Royal - Little White Lies
TTITLE7=Maxwell Davis Orchestra - Boogie Cocktails
TTITLE8=Maxwell Davis Orchestra - Belmont Special
TTITLE9=Maxwell Davis Orchestra - Bristol Drive
TTITLE10=Maxwell Davis Orchestra - Resistor
TTITLE11=Maxwell Davis and His Blenders - Welcome Home Baby
TTITLE12=Maxwell Davis and His Blenders - Get Out
TTITLE13=Maxwell Davis - Hey, Good Lookin'
TTITLE14=Maxwell Davis - I'm Waiting Just for You
TTITLE15=Maxwell Davis - I'll Always Be in Love with You
TTITLE16=Maxwell Davis - Blue Tango
TTITLE17=Maxwell Davis - The Glory of Love
TTITLE18=Maxwell Davis - Popsicle
TTITLE19=Maxwell Davis - Blue Shuffle
TTITLE20=Maxwell Davis and The All Stars - Side Car
TTITLE21=Maxwell Davis and The All Stars - The Way You Look Tonight
TTITLE22=Maxwell Davis - Hot Point
TTITLE23=Maxwell Davis - Strange Sensation
TTITLE24=Maxwell Davis - Ooh!
TTITLE25=Maxwell Davis - Look Sharp - Be Sharp (The Gillette March)
TTITLE26=Maxwell Davis - Hey Boy
TTITLE27=Maxwell Davis and His Rock 'n' Roll Orchestra - Thunderbird
TTITLE28=Maxwell Davis and His Rock 'n' Roll Orchestra - Bluesville
TTITLE29=Maxwell Davis and His Rock 'n' Roll Orchestra - Tempo Rock
TTITLE30=Maxwell Davis and His Rock 'n' Roll Orchestra - Cool Diggin'
EXTD=
EXTT0=
EXTT1=
EXTT2=
EXTT3=
EXTT4=
EXTT5=
EXTT6=
EXTT7=
EXTT8=
EXTT9=
EXTT10=
EXTT11=
EXTT12=
EXTT13=
EXTT14=
EXTT15=
EXTT16=
EXTT17=
EXTT18=
EXTT19=
EXTT20=
EXTT21=
EXTT22=
EXTT23=
EXTT24=
EXTT25=
EXTT26=
EXTT27=
EXTT28=
EXTT29=
EXTT30=
PLAYORDER=
